<?xml version="1.0" encoding="UTF-8" standalone="no"?>
<!DOCTYPE svg PUBLIC "-//W3C//DTD SVG 1.1//EN"
 "http://www.w3.org/Graphics/SVG/1.1/DTD/svg11.dtd">
<!-- Generated by graphviz version 2.26.3 (20100126.1600)
 -->
<!-- Title: G Pages: 1 -->
<svg width="418pt" height="430pt"
 viewBox="0.00 0.00 418.00 430.00" xmlns="http://www.w3.org/2000/svg" xmlns:xlink="http://www.w3.org/1999/xlink">
<g id="graph1" class="graph" transform="scale(1 1) rotate(0) translate(4 426)">
<title>G</title>
<polygon fill="white" stroke="white" points="-4,5 -4,-426 415,-426 415,5 -4,5"/>
<g id="graph2" class="cluster"><title>cluster_17</title>
<polygon fill="lightgrey" stroke="lightgrey" points="44,-8 44,-84 402,-84 402,-8 44,-8"/>
<text text-anchor="middle" x="223" y="-67.4" font-family="Times New Roman,serif" font-size="14.00">elevator.ButtonPress elevator/Elevator.java:49</text>
</g>
<g id="graph3" class="cluster"><title>cluster_1059</title>
<polygon fill="lightgrey" stroke="lightgrey" points="8,-118 8,-194 259,-194 259,-118 8,-118"/>
<text text-anchor="middle" x="133.5" y="-177.4" font-family="Times New Roman,serif" font-size="14.00">java.lang.Object[] java/util/Vector.java:127</text>
</g>
<g id="graph4" class="cluster"><title>cluster_16</title>
<polygon fill="lightgrey" stroke="lightgrey" points="98,-228 98,-304 337,-304 337,-228 98,-228"/>
<text text-anchor="middle" x="217.5" y="-287.4" font-family="Times New Roman,serif" font-size="14.00">java.util.Vector elevator/Elevator.java:36</text>
</g>
<g id="graph5" class="cluster"><title>cluster_1</title>
<polygon fill="lightgrey" stroke="lightgrey" points="101,-338 101,-414 356,-414 356,-338 101,-338"/>
<text text-anchor="middle" x="228.5" y="-397.4" font-family="Times New Roman,serif" font-size="14.00">elevator.Elevator elevator/Elevator.java:115</text>
</g>
<!-- 1352 -->
<g id="node1" class="node"><title>1352</title>
<a xlink:href="elevator/Elevator.java:115" xlink:title="541,3*">
<ellipse fill="blue" stroke="blue" cx="88" cy="-34" rx="36.2243" ry="18"/>
<text text-anchor="middle" x="88" y="-29.4" font-family="Times New Roman,serif" font-size="14.00">541,3*</text>
</a>
</g>
<!-- 1292 -->
<g id="node2" class="node"><title>1292</title>
<a xlink:href="elevator/Elevator.java:115,elevator/Elevator.java:36" xlink:title="534,3*">
<ellipse fill="green" stroke="green" cx="205" cy="-144" rx="36.2243" ry="18"/>
<text text-anchor="middle" x="205" y="-139.4" font-family="Times New Roman,serif" font-size="14.00">534,3*</text>
</a>
</g>
<!-- 1292&#45;&gt;1352 -->
<g id="edge2" class="edge"><title>1292&#45;&gt;1352</title>
<path fill="none" stroke="black" d="M185.098,-128.682C170.265,-116.967 149.763,-100.137 133,-84 124.711,-76.021 116.138,-66.7785 108.726,-58.4265"/>
<polygon fill="black" stroke="black" points="111.241,-55.9857 102.024,-50.7622 105.972,-60.5938 111.241,-55.9857"/>
<text text-anchor="middle" x="161.5" y="-95.4" font-family="Times New Roman,serif" font-size="14.00">0</text>
</g>
<!-- 1359 -->
<g id="node8" class="node"><title>1359</title>
<a xlink:href="elevator/Elevator.java:115" xlink:title="575,3*">
<ellipse fill="green" stroke="green" cx="178" cy="-34" rx="36.2243" ry="18"/>
<text text-anchor="middle" x="178" y="-29.4" font-family="Times New Roman,serif" font-size="14.00">575,3*</text>
</a>
</g>
<!-- 1292&#45;&gt;1359 -->
<g id="edge8" class="edge"><title>1292&#45;&gt;1359</title>
<path fill="none" stroke="black" d="M200.541,-125.836C196.281,-108.48 189.798,-82.0669 184.876,-62.0154"/>
<polygon fill="black" stroke="black" points="188.248,-61.0686 182.465,-52.1912 181.45,-62.7373 188.248,-61.0686"/>
<text text-anchor="middle" x="198.5" y="-95.4" font-family="Times New Roman,serif" font-size="14.00">1</text>
</g>
<!-- 1366 -->
<g id="node10" class="node"><title>1366</title>
<a xlink:href="elevator/Elevator.java:115" xlink:title="579,3*">
<ellipse fill="green" stroke="green" cx="268" cy="-34" rx="36.2243" ry="18"/>
<text text-anchor="middle" x="268" y="-29.4" font-family="Times New Roman,serif" font-size="14.00">579,3*</text>
</a>
</g>
<!-- 1292&#45;&gt;1366 -->
<g id="edge10" class="edge"><title>1292&#45;&gt;1366</title>
<path fill="none" stroke="black" d="M215.122,-126.327C225.317,-108.526 241.169,-80.8476 252.86,-60.4353"/>
<polygon fill="black" stroke="black" points="255.97,-62.0466 257.903,-51.6295 249.896,-58.5677 255.97,-62.0466"/>
<text text-anchor="middle" x="237.5" y="-95.4" font-family="Times New Roman,serif" font-size="14.00">2</text>
</g>
<!-- 1375 -->
<g id="node12" class="node"><title>1375</title>
<a xlink:href="elevator/Elevator.java:115" xlink:title="584,3*">
<ellipse fill="green" stroke="green" cx="358" cy="-34" rx="36.2243" ry="18"/>
<text text-anchor="middle" x="358" y="-29.4" font-family="Times New Roman,serif" font-size="14.00">584,3*</text>
</a>
</g>
<!-- 1292&#45;&gt;1375 -->
<g id="edge12" class="edge"><title>1292&#45;&gt;1375</title>
<path fill="none" stroke="black" d="M232.27,-131.967C255.079,-121.198 287.832,-104.043 313,-84 322.138,-76.7223 331.006,-67.4979 338.419,-58.9594"/>
<polygon fill="black" stroke="black" points="341.294,-60.9786 345.042,-51.069 335.932,-56.4781 341.294,-60.9786"/>
<text text-anchor="middle" x="305.5" y="-95.4" font-family="Times New Roman,serif" font-size="14.00">3</text>
</g>
<!-- 1291 -->
<g id="node4" class="node"><title>1291</title>
<a xlink:href="elevator/Elevator.java:115" xlink:title="532,3*">
<ellipse fill="green" stroke="green" cx="205" cy="-254" rx="36.2243" ry="18"/>
<text text-anchor="middle" x="205" y="-249.4" font-family="Times New Roman,serif" font-size="14.00">532,3*</text>
</a>
</g>
<!-- 1291&#45;&gt;1292 -->
<g id="edge4" class="edge"><title>1291&#45;&gt;1292</title>
<path fill="none" stroke="black" d="M205,-235.836C205,-218.559 205,-192.309 205,-172.292"/>
<polygon fill="black" stroke="black" points="208.5,-172.191 205,-162.191 201.5,-172.191 208.5,-172.191"/>
<text text-anchor="middle" x="239" y="-205.4" font-family="Times New Roman,serif" font-size="14.00">elementData</text>
</g>
<!-- 1293 -->
<g id="node6" class="node"><title>1293</title>
<a xlink:href="null" xlink:title="496,3">
<ellipse fill="green" stroke="green" cx="205" cy="-364" rx="31.0281" ry="18"/>
<text text-anchor="middle" x="205" y="-359.4" font-family="Times New Roman,serif" font-size="14.00">496,3</text>
</a>
</g>
<!-- 1293&#45;&gt;1291 -->
<g id="edge6" class="edge"><title>1293&#45;&gt;1291</title>
<path fill="none" stroke="black" d="M205,-345.836C205,-328.559 205,-302.309 205,-282.292"/>
<polygon fill="black" stroke="black" points="208.5,-282.191 205,-272.191 201.5,-282.191 208.5,-282.191"/>
<text text-anchor="middle" x="223" y="-315.4" font-family="Times New Roman,serif" font-size="14.00">events</text>
</g>
<!-- 1474 -->
<g id="node14" class="node"><title>1474</title>
<a xlink:href="elevator/Elevator.java:115,elevator/Elevator.java:60" xlink:title="651,3*">
<ellipse fill="red" stroke="red" cx="52" cy="-144" rx="36.2243" ry="18"/>
<text text-anchor="middle" x="52" y="-139.4" font-family="Times New Roman,serif" font-size="14.00">651,3*</text>
</a>
</g>
</g>
</svg>
